<?xml version="1.0" standalone="no"?>
<!DOCTYPE svg PUBLIC "-//W3C//DTD SVG 20010904//EN"
 "http://www.w3.org/TR/2001/REC-SVG-20010904/DTD/svg10.dtd">
<svg version="1.0" xmlns="http://www.w3.org/2000/svg"
 width="1280.000000pt" height="720.000000pt" viewBox="0 0 1280.000000 720.000000"
 preserveAspectRatio="xMidYMid meet">
<metadata>
Created by potrace 1.16, written by Peter Selinger 2001-2019
</metadata>
<g transform="translate(0.000000,720.000000) scale(0.100000,-0.100000)"
fill="#000000" stroke="none">
<path d="M4576 5478 c-9 -18 -27 -69 -41 -113 -14 -44 -32 -94 -40 -112 -8
-17 -15 -37 -15 -45 0 -8 -4 -18 -9 -23 -4 -6 -13 -28 -19 -50 -14 -52 -40
-126 -51 -146 -5 -9 -13 -33 -16 -53 -4 -20 -10 -36 -14 -36 -4 0 -13 -19 -18
-42 -13 -51 -40 -127 -52 -148 -5 -9 -12 -31 -16 -50 -4 -19 -11 -41 -16 -50
-10 -16 -34 -84 -51 -140 -5 -19 -14 -39 -18 -45 -4 -5 -11 -25 -15 -43 -4
-18 -13 -45 -21 -60 -8 -15 -14 -34 -14 -42 0 -8 -7 -28 -15 -44 -8 -15 -15
-36 -15 -45 0 -9 -6 -25 -13 -36 -8 -11 -19 -42 -26 -70 -7 -27 -14 -58 -17
-67 -3 -11 0 -18 8 -18 7 0 25 -6 40 -14 15 -8 41 -17 58 -21 17 -4 43 -13 58
-21 15 -8 34 -14 42 -14 8 0 28 -7 43 -15 15 -8 43 -17 62 -21 19 -3 35 -9 35
-13 0 -4 19 -13 43 -18 51 -14 126 -40 148 -52 9 -5 33 -13 53 -16 20 -4 36
-10 36 -14 0 -4 19 -13 43 -18 41 -11 111 -35 152 -52 11 -5 38 -13 60 -18 22
-6 110 -35 195 -66 355 -126 447 -159 485 -172 22 -7 85 -29 140 -50 55 -20
118 -42 140 -50 22 -7 105 -36 185 -65 144 -51 333 -119 525 -187 150 -53 141
-53 159 3 16 51 22 68 106 304 28 80 66 188 85 240 18 52 56 160 85 240 28 80
63 179 77 220 25 74 55 150 73 181 5 9 12 33 15 53 4 20 11 36 15 36 4 0 11
17 15 37 4 21 12 49 19 63 7 14 16 37 20 52 5 23 3 27 -25 33 -17 4 -42 13
-57 21 -15 8 -34 14 -42 14 -8 0 -28 7 -43 15 -15 8 -43 17 -62 21 -19 3 -35
9 -35 13 0 4 -19 13 -42 18 -52 14 -127 40 -149 52 -9 5 -33 13 -53 16 -20 4
-36 10 -36 14 0 4 -19 13 -42 18 -51 13 -127 40 -148 52 -9 5 -30 12 -49 16
-18 4 -44 13 -59 21 -15 8 -34 14 -42 14 -8 0 -28 7 -43 15 -15 8 -43 17 -62
21 -19 3 -35 10 -35 15 0 5 -8 9 -17 9 -10 1 -36 8 -58 16 -22 9 -53 19 -70
24 -47 14 -119 39 -135 49 -9 5 -31 12 -50 16 -19 4 -39 11 -45 15 -5 4 -26
13 -45 18 -47 14 -120 40 -145 52 -11 5 -36 13 -55 19 -52 14 -123 40 -141 50
-9 5 -33 13 -53 16 -20 4 -36 10 -36 14 0 4 -19 13 -42 18 -51 13 -127 40
-148 52 -9 5 -31 12 -50 16 -19 4 -41 11 -50 16 -16 10 -84 34 -140 51 -19 5
-39 14 -45 18 -5 4 -25 11 -43 15 -18 4 -45 13 -60 21 -15 8 -34 14 -42 14 -8
0 -27 6 -42 14 -15 8 -42 17 -60 21 -18 4 -35 11 -38 15 -3 4 -17 10 -32 14
-23 5 -29 2 -42 -26z m420 -650 c86 -23 155 -104 167 -195 8 -63 -5 -75 -78
-66 l-59 8 -8 45 c-10 57 -43 90 -96 97 -52 7 -102 -15 -137 -61 -38 -50 -76
-170 -82 -261 -5 -76 -4 -82 21 -112 30 -35 70 -45 129 -30 32 8 46 20 70 59
25 39 35 48 59 48 16 0 31 -6 34 -15 4 -8 15 -15 25 -15 27 0 29 -48 3 -63 -8
-4 -14 -14 -14 -21 0 -7 -9 -21 -20 -31 -11 -10 -20 -24 -20 -30 0 -7 -24 -23
-52 -36 -60 -27 -162 -32 -234 -11 -47 14 -105 67 -130 121 -50 105 -15 323
71 438 92 122 213 167 351 131z m532 -235 c52 -23 81 -51 103 -100 21 -47 24
-63 9 -63 -5 0 -10 -24 -10 -52 -1 -60 -20 -142 -38 -160 -7 -7 -12 -17 -12
-24 0 -18 -80 -84 -110 -91 -14 -3 -30 -10 -37 -15 -18 -14 -134 2 -171 24
-59 36 -81 76 -88 162 -6 59 -3 84 9 114 29 66 40 97 38 106 -5 21 89 97 135
109 45 11 138 6 172 -10z m418 -59 c10 -12 16 -12 40 1 38 20 98 19 115 -1 11
-13 10 -25 -7 -72 l-19 -56 -60 -1 c-76 -1 -117 -21 -126 -60 -4 -16 -14 -48
-23 -70 -8 -22 -15 -50 -16 -63 0 -13 -5 -33 -12 -45 -6 -12 -17 -44 -23 -72
l-12 -50 -54 4 c-30 1 -56 5 -58 7 -2 2 3 14 11 26 8 13 18 46 22 73 4 28 14
64 22 80 7 17 18 54 24 83 5 29 14 61 20 71 7 13 7 20 -1 23 -12 4 14 112 32
134 15 18 109 9 125 -12z m302 -20 c21 -4 22 -9 22 -89 0 -50 -4 -85 -10 -85
-11 0 -12 -62 -2 -130 9 -55 36 -68 47 -21 3 16 13 35 21 42 8 6 14 17 14 24
0 7 7 18 16 26 10 8 14 22 10 40 -3 17 0 32 9 39 8 7 15 18 15 24 0 6 14 33
30 59 l31 48 67 -3 c53 -2 67 -6 70 -20 4 -21 -71 -141 -101 -161 -12 -8 -31
-32 -42 -53 -11 -21 -34 -59 -51 -84 -16 -25 -33 -52 -37 -60 -4 -8 -16 -28
-27 -45 -11 -16 -24 -39 -28 -50 -7 -16 -17 -19 -53 -17 -56 4 -81 11 -74 22
3 4 0 66 -6 137 -6 70 -12 143 -13 161 -2 18 -8 38 -15 45 -12 12 -16 149 -4
160 6 6 57 2 111 -9z m695 -63 c50 -23 77 -51 106 -108 24 -49 28 -113 7 -113
-9 0 -16 -15 -19 -42 -12 -94 -19 -110 -76 -167 -66 -67 -118 -86 -202 -75
-61 7 -105 30 -134 70 -44 59 -58 170 -29 226 9 16 13 40 10 53 -11 44 84 142
162 165 50 15 131 11 175 -9z"/>
<path d="M5376 4477 c-58 -17 -85 -64 -93 -166 -6 -75 -4 -83 16 -105 14 -15
40 -27 67 -31 39 -6 50 -3 80 20 47 36 73 91 80 172 l6 69 -41 27 c-44 29 -55
30 -115 14z"/>
<path d="M6813 4343 c-12 -2 -33 -18 -47 -34 -14 -16 -30 -29 -36 -29 -16 0
-27 -36 -35 -118 -7 -69 -6 -74 18 -97 15 -16 41 -27 70 -31 43 -6 47 -5 90
39 45 44 67 93 67 149 0 15 -4 29 -9 32 -4 3 -11 19 -14 35 -6 28 -51 64 -74
60 -4 -1 -18 -4 -30 -6z"/>
</g>
</svg>
