<?xml version="1.0" standalone="no"?>
<!DOCTYPE svg PUBLIC "-//W3C//DTD SVG 20010904//EN"
 "http://www.w3.org/TR/2001/REC-SVG-20010904/DTD/svg10.dtd">
<svg version="1.0" xmlns="http://www.w3.org/2000/svg"
 width="220.000000pt" height="321.000000pt" viewBox="0 0 220.000000 321.000000"
 preserveAspectRatio="xMidYMid meet">
<metadata>
Created by potrace 1.16, written by Peter Selinger 2001-2019
</metadata>
<g transform="translate(0.000000,321.000000) scale(0.100000,-0.100000)"
fill="#000000" stroke="none">
<path d="M1490 2981 c0 -6 -11 -11 -24 -11 -13 0 -26 -4 -28 -10 -1 -5 -15
-11 -30 -12 -15 -1 -24 -6 -22 -10 3 -4 -2 -8 -10 -8 -9 0 -32 -9 -51 -20 -45
-25 -132 -30 -169 -11 -20 11 -29 12 -38 3 -7 -7 -23 -12 -37 -12 -13 0 -21
-3 -17 -7 14 -14 -93 -32 -196 -33 -65 0 -108 -4 -108 -10 0 -5 -9 -10 -20
-10 -11 0 -20 -4 -20 -10 0 -5 -7 -10 -15 -10 -8 0 -15 -4 -15 -9 0 -5 -8 -17
-17 -26 -13 -14 -16 -38 -17 -128 0 -100 3 -118 26 -169 15 -32 24 -58 20 -58
-4 0 -2 -4 3 -8 39 -28 48 -207 14 -274 -26 -50 -42 -68 -63 -68 -9 0 -16 -4
-16 -10 0 -5 -13 -10 -29 -10 -17 0 -33 -4 -36 -10 -4 -6 -58 -10 -131 -10
-76 0 -124 -4 -124 -10 0 -5 -11 -10 -24 -10 -28 0 -27 12 -5 -150 6 -47 15
-92 19 -100 5 -8 9 -35 11 -60 1 -25 6 -52 10 -60 5 -11 0 -16 -20 -17 -14 -1
-35 -3 -46 -5 -11 -2 -19 2 -18 8 1 7 -14 7 -50 -3 -28 -7 -59 -13 -69 -13
-23 0 -58 -69 -58 -115 0 -25 9 -48 30 -73 40 -51 48 -92 23 -134 -23 -40 -16
-67 38 -148 73 -110 97 -180 56 -164 -14 5 -40 -19 -50 -47 -9 -27 29 -79 57
-79 30 0 76 20 76 32 0 5 5 6 10 3 6 -3 10 0 10 7 0 8 11 29 25 48 14 18 22
36 19 39 -3 3 -13 -5 -23 -17 -19 -25 -31 -20 -30 12 0 12 3 15 6 8 3 -9 12
-3 24 17 13 21 27 31 43 31 13 0 26 4 28 9 2 5 34 11 72 14 67 4 72 3 155 -40
47 -25 100 -58 116 -74 17 -16 34 -29 39 -29 20 0 166 -78 204 -110 62 -50
134 -161 129 -197 -6 -37 10 -66 31 -58 9 3 13 3 10 0 -4 -4 3 -26 15 -48 18
-35 22 -56 20 -129 -2 -85 -11 -117 -40 -147 -8 -7 -12 -20 -9 -28 3 -8 1 -11
-4 -8 -6 3 -10 1 -10 -4 0 -6 6 -11 14 -11 7 0 21 -11 30 -25 9 -13 30 -32 46
-40 36 -19 50 -13 101 42 37 40 37 52 1 91 -7 7 -9 18 -6 24 3 5 1 29 -6 54
-11 38 -10 47 5 71 29 46 97 124 102 119 8 -8 68 68 80 100 6 16 17 49 24 74
8 25 29 73 47 106 29 51 41 64 73 74 22 7 39 19 39 27 0 7 9 13 20 13 35 0 46
46 39 152 -4 51 -4 95 1 98 4 3 7 23 8 45 2 77 14 181 32 285 34 191 40 223
85 460 25 129 52 264 61 300 9 36 18 85 21 110 3 25 9 49 14 55 5 5 9 26 9 46
0 21 4 40 9 44 6 3 10 13 10 23 1 24 8 76 11 82 1 3 2 9 1 14 -1 5 1 16 5 25
4 9 8 18 9 21 1 3 5 12 8 20 8 19 38 191 43 248 4 36 1 42 -15 42 -10 0 -31
-7 -47 -14 -15 -8 -32 -12 -37 -9 -6 3 -7 1 -3 -5 5 -8 -6 -12 -36 -12 -33 0
-40 -3 -28 -11 12 -8 10 -9 -10 -5 -14 3 -56 9 -93 12 -37 4 -70 11 -73 15 -3
5 -16 9 -30 9 -13 0 -24 4 -24 9 0 11 -47 21 -127 28 -42 3 -63 1 -63 -6z
m-1152 -1792 c14 -10 30 -19 36 -19 13 -1 56 -35 56 -45 0 -3 -4 -3 -10 0 -5
3 -10 -1 -10 -9 0 -9 -9 -16 -20 -16 -11 0 -34 -9 -52 -20 -18 -11 -36 -20
-40 -20 -4 0 -21 29 -39 65 -31 64 -31 66 -13 80 23 18 57 12 92 -16z"/>
</g>
</svg>
